<?xml version="1.0" encoding="UTF-8" standalone="no"?>
<!-- Uploaded to: SVG Repo, www.svgrepo.com, Generator: SVG Repo Mixer Tools -->

<svg
   fill="#ffffff"
   height="436.36752"
   width="800.00061"
   version="1.1"
   id="Layer_1"
   viewBox="0 0 330.00025 180.0016"
   xml:space="preserve"
   sodipodi:docname="right-arr.svg"
   inkscape:version="1.4.1 (93de688d07, 2025-03-30)"
   xmlns:inkscape="http://www.inkscape.org/namespaces/inkscape"
   xmlns:sodipodi="http://sodipodi.sourceforge.net/DTD/sodipodi-0.dtd"
   xmlns="http://www.w3.org/2000/svg"
   xmlns:svg="http://www.w3.org/2000/svg"><defs
   id="defs1" /><sodipodi:namedview
   id="namedview1"
   pagecolor="#505050"
   bordercolor="#ffffff"
   borderopacity="1"
   inkscape:showpageshadow="0"
   inkscape:pageopacity="0"
   inkscape:pagecheckerboard="1"
   inkscape:deskcolor="#505050"
   inkscape:zoom="1.15375"
   inkscape:cx="400"
   inkscape:cy="217.98483"
   inkscape:window-width="1918"
   inkscape:window-height="1176"
   inkscape:window-x="0"
   inkscape:window-y="22"
   inkscape:window-maximized="1"
   inkscape:current-layer="Layer_1" />
<path
   id="XMLID_223_"
   d="m 325.606,79.394605 -75,-75.0009999 c -4.289,-4.29099998 -10.743,-5.572 -16.347,-3.252 -5.605,2.322 -9.26,7.792 -9.26,13.8579999 v 60.001 H 15 c -8.284,0 -15,6.716 -15,15 0,8.284 6.716,15.000005 15,15.000005 h 210 v 60 c 0,6.067 3.654,11.537 9.26,13.858 1.855,0.769 3.805,1.143 5.737,1.143 3.903,0 7.74,-1.524 10.609,-4.395 l 75,-75 c 5.859,-5.857005 5.859,-15.354005 0,-21.212005 z" />
</svg>
